<svg xmlns="http://www.w3.org/2000/svg" viewBox="0 0 400.62 56.7"><defs><style>.cls-1{fill:#ededed;}</style></defs><title>diversivo</title><g id="Capa_2" data-name="Capa 2"><g id="Layer_1" data-name="Layer 1"><path class="cls-1" d="M50.24,28.2a26.44,26.44,0,0,1-2.63,12.19,24.49,24.49,0,0,1-6.91,8.44A28.88,28.88,0,0,1,31,53.69a39.27,39.27,0,0,1-11,1.56H0V1.44H19.46A48.38,48.38,0,0,1,30.7,2.77a28.25,28.25,0,0,1,9.88,4.41,22.59,22.59,0,0,1,7,8.25A27.72,27.72,0,0,1,50.24,28.2Zm-13.53,0a17.22,17.22,0,0,0-1.48-7.57,12.72,12.72,0,0,0-4-4.78,15.83,15.83,0,0,0-5.62-2.55,27.46,27.46,0,0,0-6.5-.76H12.69V44h6.16a28,28,0,0,0,6.72-.79,15.87,15.87,0,0,0,5.7-2.63,12.91,12.91,0,0,0,4-4.86A17.2,17.2,0,0,0,36.71,28.2Z"/><path class="cls-1" d="M57.77,55.25V1.44H70.85V55.25Z"/><path class="cls-1" d="M108.14,55.25h-13L74.77,1.44h14.6L101.83,39.6h.31L114.52,1.44h14.37Z"/><path class="cls-1" d="M132.82,55.25V1.44H169v11H145.36V22.57H167.7V33H145.36V44.16h25V55.25Z"/><path class="cls-1" d="M207.35,55.25,195.67,33.9h-4.43V55.25h-12.7V1.44h20.52a35.82,35.82,0,0,1,7.57.8,19.6,19.6,0,0,1,6.61,2.7,14.08,14.08,0,0,1,4.67,5,15.59,15.59,0,0,1,1.75,7.75,14.31,14.31,0,0,1-3,9.19,16.14,16.14,0,0,1-8.21,5.32l14.06,23Zm-.53-37.31a5.32,5.32,0,0,0-.81-3.08A5.42,5.42,0,0,0,204,13a9,9,0,0,0-2.82-.87,21.33,21.33,0,0,0-3-.23h-7V24.47h6.19a21.83,21.83,0,0,0,3.28-.26,10.84,10.84,0,0,0,3.06-.95,6,6,0,0,0,2.25-2A5.88,5.88,0,0,0,206.82,17.94Z"/><path class="cls-1" d="M256.59,15.43a11.68,11.68,0,0,0-4.37-3.38A12.27,12.27,0,0,0,247,10.79a15.73,15.73,0,0,0-2.62.23,6.7,6.7,0,0,0-2.39.87,6,6,0,0,0-1.79,1.68,4.43,4.43,0,0,0-.72,2.62,4.24,4.24,0,0,0,.57,2.28,5,5,0,0,0,1.67,1.59,14.55,14.55,0,0,0,2.62,1.26c1,.38,2.16.77,3.42,1.18,1.83.6,3.73,1.28,5.7,2a21.3,21.3,0,0,1,5.4,2.93,15.37,15.37,0,0,1,4,4.52,13.06,13.06,0,0,1,1.59,6.72,17.54,17.54,0,0,1-1.71,8,16,16,0,0,1-4.59,5.59,19.72,19.72,0,0,1-6.62,3.27,28.12,28.12,0,0,1-7.67,1.06,31.71,31.71,0,0,1-11.17-2,23.77,23.77,0,0,1-9-5.74l8.51-8.67a15.61,15.61,0,0,0,5.21,4.07,14.09,14.09,0,0,0,6.42,1.63,13.08,13.08,0,0,0,2.81-.3,6.85,6.85,0,0,0,2.39-1,4.89,4.89,0,0,0,1.64-1.82,5.8,5.8,0,0,0,.61-2.74,4.31,4.31,0,0,0-.77-2.58,7.24,7.24,0,0,0-2.16-1.94,18,18,0,0,0-3.5-1.6q-2.08-.72-4.75-1.55a46.36,46.36,0,0,1-5-2,16.62,16.62,0,0,1-4.41-2.93,13.44,13.44,0,0,1-3.11-4.33A14.58,14.58,0,0,1,226.42,17a15.31,15.31,0,0,1,1.82-7.68A15.85,15.85,0,0,1,233,4a20.43,20.43,0,0,1,6.69-3,30,30,0,0,1,7.52-.95,27.81,27.81,0,0,1,9.31,1.67,23.83,23.83,0,0,1,8.32,4.94Z"/><path class="cls-1" d="M272.11,55.25V1.44h13.08V55.25Z"/><path class="cls-1" d="M322.48,55.25h-13L289.12,1.44h14.59L316.17,39.6h.31L328.86,1.44h14.37Z"/><path class="cls-1" d="M400.62,28.12a30,30,0,0,1-2.21,11.67,26.58,26.58,0,0,1-6.12,9A27,27,0,0,1,383,54.64a32.63,32.63,0,0,1-11.7,2.06,32.35,32.35,0,0,1-11.67-2.06,27.15,27.15,0,0,1-9.27-5.81,26.58,26.58,0,0,1-6.12-9A30,30,0,0,1,342,28.12a29.64,29.64,0,0,1,2.2-11.67,25.52,25.52,0,0,1,6.12-8.85A27.18,27.18,0,0,1,359.61,2,35.47,35.47,0,0,1,383,2a27.07,27.07,0,0,1,9.31,5.62,25.52,25.52,0,0,1,6.12,8.85A29.64,29.64,0,0,1,400.62,28.12Zm-13.91,0a18.5,18.5,0,0,0-1.14-6.54,15.63,15.63,0,0,0-3.16-5.2A14.35,14.35,0,0,0,377.55,13a15.33,15.33,0,0,0-6.27-1.26,15,15,0,0,0-11.1,4.68,14.68,14.68,0,0,0-3.15,5.2,19,19,0,0,0-1.1,6.54,19.29,19.29,0,0,0,1.14,6.73,16,16,0,0,0,3.15,5.28,14.39,14.39,0,0,0,4.83,3.46,16.15,16.15,0,0,0,12.46,0,15,15,0,0,0,4.87-3.46,15.74,15.74,0,0,0,3.19-5.28A19.29,19.29,0,0,0,386.71,28.12Z"/></g></g></svg>