<svg xmlns="http://www.w3.org/2000/svg" viewBox="0 0 220 220"><defs><style>.cls-1{fill:#f6f6f6;}.cls-2{fill:none;}</style></defs><title>diversivo-sticker</title><g id="Capa_2" data-name="Capa 2"><g id="Layer_1" data-name="Layer 1"><path class="cls-1" d="M70.83,48.33a21.53,21.53,0,0,1-2.13,9.91,19.9,19.9,0,0,1-5.62,6.85,23.32,23.32,0,0,1-7.87,4,31.63,31.63,0,0,1-8.89,1.27H30V26.6H45.83A39.18,39.18,0,0,1,55,27.68a22.83,22.83,0,0,1,8,3.58A18.31,18.31,0,0,1,68.67,38,22.51,22.51,0,0,1,70.83,48.33Zm-11,0a13.85,13.85,0,0,0-1.2-6.14,10.38,10.38,0,0,0-3.21-3.89,12.78,12.78,0,0,0-4.57-2.07,22.57,22.57,0,0,0-5.28-.62H40.33V61.17h5a22.33,22.33,0,0,0,5.47-.65,12.85,12.85,0,0,0,4.63-2.13,10.5,10.5,0,0,0,3.21-4A13.89,13.89,0,0,0,59.84,48.33Z"/><path class="cls-1" d="M103,70.31V26.6h10.62V70.31Z"/><path class="cls-1" d="M170.71,70.31H160.15L143.61,26.6h11.85l10.12,31h.25l10.07-31h11.66Z"/><path class="cls-1" d="M28.63,130.8V87.08H58V96H38.81v8.28H57v8.46H38.81v9.07H59.13v9Z"/><path class="cls-1" d="M116.13,130.8l-9.5-17.35H103V130.8H92.73V87.08H109.4a29.15,29.15,0,0,1,6.14.65,16.11,16.11,0,0,1,5.37,2.19,11.55,11.55,0,0,1,3.8,4.08,12.82,12.82,0,0,1,1.42,6.3,11.66,11.66,0,0,1-2.41,7.47,13.24,13.24,0,0,1-6.67,4.32l11.42,18.71Zm-.44-30.32A4.32,4.32,0,0,0,115,98a4.41,4.41,0,0,0-1.67-1.48,7.28,7.28,0,0,0-2.3-.71,17.52,17.52,0,0,0-2.45-.19H103v10.19h5a17.55,17.55,0,0,0,2.67-.21,8.68,8.68,0,0,0,2.48-.78,4.46,4.46,0,0,0,2.54-4.32Z"/><path class="cls-1" d="M182,98.44a9.51,9.51,0,0,0-3.55-2.74,10,10,0,0,0-4.23-1,12.94,12.94,0,0,0-2.13.18,5.63,5.63,0,0,0-1.94.71,4.83,4.83,0,0,0-1.45,1.36,3.64,3.64,0,0,0-.59,2.13,3.5,3.5,0,0,0,.46,1.85,4.15,4.15,0,0,0,1.36,1.3,12.46,12.46,0,0,0,2.13,1c.83.31,1.75.63,2.78,1,1.48.49,3,1,4.63,1.63a17.37,17.37,0,0,1,4.39,2.38,12.68,12.68,0,0,1,3.27,3.67,10.65,10.65,0,0,1,1.29,5.47,14.34,14.34,0,0,1-1.38,6.51,13.17,13.17,0,0,1-3.74,4.54,16,16,0,0,1-5.37,2.65,22.5,22.5,0,0,1-6.24.87,25.72,25.72,0,0,1-9.07-1.64,19.18,19.18,0,0,1-7.29-4.66l6.92-7a12.67,12.67,0,0,0,4.23,3.3,11.36,11.36,0,0,0,5.21,1.33A10.85,10.85,0,0,0,174,123a5.76,5.76,0,0,0,1.94-.81,4,4,0,0,0,1.33-1.48,4.66,4.66,0,0,0,.49-2.22,3.54,3.54,0,0,0-.61-2.1,6.22,6.22,0,0,0-1.76-1.58,14.6,14.6,0,0,0-2.84-1.29c-1.14-.39-2.42-.81-3.86-1.27a38,38,0,0,1-4.11-1.6,13.71,13.71,0,0,1-3.58-2.38,11.05,11.05,0,0,1-2.53-3.52,11.91,11.91,0,0,1-1-5A12.47,12.47,0,0,1,159,93.44a12.93,12.93,0,0,1,3.89-4.26,16.91,16.91,0,0,1,5.44-2.44,24.77,24.77,0,0,1,6.11-.77A22.81,22.81,0,0,1,182,87.33a19.67,19.67,0,0,1,6.76,4Z"/><path class="cls-1" d="M123.75,167.88v10.55L80,195V183.13L111,173v-.25L80,162.69V151Z"/><path class="cls-1" d="M190.26,172.82a24.43,24.43,0,0,1-1.79,9.47,21.71,21.71,0,0,1-5,7.35,22.1,22.1,0,0,1-7.57,4.72,27.8,27.8,0,0,1-19,0,22,22,0,0,1-7.53-4.72,21.59,21.59,0,0,1-5-7.35,24.43,24.43,0,0,1-1.78-9.47,24.16,24.16,0,0,1,1.78-9.48,20.65,20.65,0,0,1,5-7.19,22,22,0,0,1,7.53-4.57,28.77,28.77,0,0,1,19,0,22.07,22.07,0,0,1,7.57,4.57,20.76,20.76,0,0,1,5,7.19A24.16,24.16,0,0,1,190.26,172.82Zm-11.3,0a14.89,14.89,0,0,0-.93-5.31,12.64,12.64,0,0,0-2.56-4.23,11.77,11.77,0,0,0-3.95-2.78,12.52,12.52,0,0,0-5.1-1,12.14,12.14,0,0,0-9,3.8,11.88,11.88,0,0,0-2.56,4.23,15.34,15.34,0,0,0-.9,5.31,15.57,15.57,0,0,0,.93,5.46,12.92,12.92,0,0,0,2.56,4.29,11.78,11.78,0,0,0,3.92,2.81,13.09,13.09,0,0,0,10.13,0,12.11,12.11,0,0,0,3.95-2.81,12.66,12.66,0,0,0,2.59-4.29A15.57,15.57,0,0,0,179,172.82Z"/><rect class="cls-1" x="30.02" y="151.14" width="10.62" height="10.42"/><rect class="cls-1" x="30.02" y="183.76" width="10.62" height="11.1"/><rect class="cls-2" width="220" height="220"/></g></g></svg>