<svg xmlns="http://www.w3.org/2000/svg" viewBox="0 0 535.48 278.91"><defs><style>.cls-1{fill:#fff;}</style></defs><title>icon-coffee</title><g id="Capa_2" data-name="Capa 2"><g id="Capa_1-2" data-name="Capa 1"><path class="cls-1" d="M248.17,0H50C24.19,0,11.94,13.6,6.21,25A60.72,60.72,0,0,0,0,49.76v61.39l2.17.2c.12,0,.87.08,2.06.08,4.21,0,14-.82,21.54-7.68,6.29-5.72,9.47-14.22,9.47-25.24V63.31c0-25.16,23.34-27.76,28.42-28L84.72,55.49l-23,184.22a7.78,7.78,0,0,0,7.72,8.74h201a7.77,7.77,0,0,0,7.72-8.74L256.17,64c3.67-5.12,22.74-33,22.74-61.57V0ZM30.46,63.31v15.2c0,9.6-2.65,16.89-7.88,21.67-6,5.47-14,6.36-17.79,6.44V49.76a56.53,56.53,0,0,1,5.69-22.61C17.94,12.31,31.24,4.79,50,4.79H88.16L63.52,30.5C57.75,30.87,30.46,34.15,30.46,63.31ZM68,32.78,78.74,21.55,90.49,9.27l-5,40.3ZM272.66,242.65a3,3,0,0,1-2.25,1h-201a3,3,0,0,1-3-3.37L95.88,4.79H243.94L273.38,240.3A3,3,0,0,1,272.66,242.65ZM255.26,56.71,248.77,4.79h25.3C273.22,26.06,261.33,47.22,255.26,56.71Z"/><path class="cls-1" d="M271.13,252.84H68.69a7.79,7.79,0,0,0-7.78,7.78v3.74H39.43v6.74H60.91v7.81h218V260.62A7.79,7.79,0,0,0,271.13,252.84Zm3,21.28H65.7v-13.5a3,3,0,0,1,3-3H271.13a3,3,0,0,1,3,3Z"/><path class="cls-1" d="M118.57,66.09a10.35,10.35,0,0,0-11.55,9L90.39,210.44a10.38,10.38,0,0,0,9,11.56,11,11,0,0,0,1.27.08A10.39,10.39,0,0,0,111,213L127.6,77.65A10.38,10.38,0,0,0,118.57,66.09Zm4.28,11L106.22,212.39A5.58,5.58,0,0,1,95.14,211L111.77,75.7a5.57,5.57,0,0,1,5.53-4.9c.23,0,.46,0,.69,0A5.6,5.6,0,0,1,122.85,77.06Z"/><circle class="cls-1" cx="120.78" cy="48.08" r="4.09" transform="translate(30.14 141.27) rotate(-67.5)"/><path class="cls-1" d="M522.68,200.87h-6.77c0-2.74,0-5.18,0-7.27a10.79,10.79,0,0,0-10.76-10.71H355.6a12.43,12.43,0,0,0-12.41,12.42v5.56H325.58l-12.8,13.89v19.08c0,5.47,1.9,14.65,14.6,14.65v-4.78c-4.57,0-9.82-1.12-9.82-9.87V216.63l10.12-11h15.51V252.5a26.43,26.43,0,0,0,26.4,26.4h28.79a27,27,0,0,0,12.5-3,26.43,26.43,0,0,0,12.32,3H452a27.8,27.8,0,0,0,4.47-.37,26.55,26.55,0,0,0,4.36.37h28.8A26.11,26.11,0,0,0,516,252.51c0-19,0-35.61-.07-46.86h4.65l10.12,11v17.21c0,8.75-5.25,9.87-9.82,9.87v4.78c12.7,0,14.6-9.18,14.6-14.65V214.76Zm-124.3,73.25H369.59A21.65,21.65,0,0,1,348,252.5V195.31a7.64,7.64,0,0,1,7.63-7.64h43.83c-.13.16-.24.33-.35.49l-.19.27a10,10,0,0,0-.58.95l-.09.17c-.14.27-.28.55-.4.83l-.14.36c-.09.23-.18.46-.26.7l-.12.41c-.07.23-.13.47-.19.71L397,193c0,.26-.08.52-.12.78s0,.25,0,.37a11.51,11.51,0,0,0-.06,1.18v5.56H379.19l-12.8,13.89v19.08c0,5.47,1.89,14.65,14.59,14.65v-4.78c-4.57,0-9.81-1.12-9.81-9.87V216.63l10.11-11H396.8V252.5c0,.54,0,1.08.05,1.61,0,.17,0,.34,0,.51,0,.36.07.73.11,1.08l.09.6c0,.33.1.66.16,1l.12.6c.07.34.15.67.23,1s.09.37.14.55c.11.38.22.76.35,1.14,0,.12.07.25.11.37.17.5.36,1,.55,1.47l.16.36c.15.36.31.73.49,1.08.08.17.16.34.25.51s.31.6.47.9l.31.53c.16.28.33.57.51.84s.21.34.33.51.4.58.6.87l.31.42c.3.4.62.8.94,1.18l0,.05c.34.4.7.79,1.06,1.16.12.13.25.25.37.37l.77.74.45.41c.14.12.27.25.41.36A22.26,22.26,0,0,1,398.38,274.12Zm24.82,0a21.59,21.59,0,0,1-21.62-21.62V195.31a7.64,7.64,0,0,1,7.63-7.64h27.84c-.13.16-.24.33-.36.49l-.18.27a10,10,0,0,0-.58.95l-.09.17c-.14.27-.27.55-.4.83l-.14.36c-.09.23-.18.46-.26.7l-.12.41c-.07.23-.13.47-.19.71l-.09.42c-.05.26-.08.52-.12.78s0,.24,0,.37a11.51,11.51,0,0,0-.06,1.18V252.5c0,.5,0,1,0,1.48l0,.41c0,.38.06.76.11,1.14l0,.35c.06.47.14.95.22,1.42l.06.28c.08.38.16.76.25,1.14,0,.13.06.26.1.4.11.41.22.83.35,1.23a.57.57,0,0,0,0,.14c.14.45.3.9.47,1.34l.13.34c.14.35.28.69.43,1,.05.11.09.22.14.32.2.43.4.85.62,1.27l.09.16c.2.36.4.72.61,1.07.06.11.13.22.2.33q.32.51.66,1l.11.16c.27.39.54.77.83,1.14l.2.25c.23.29.48.59.73.88.07.08.14.17.22.25.32.36.64.71,1,1l0,0c.32.33.66.64,1,.95l.27.24c.29.26.59.51.9.76l.2.16c.37.3.75.58,1.14.86l.06,0Zm66.41,0h-28.8A21.61,21.61,0,0,1,439.2,252.5V195.31a7.64,7.64,0,0,1,7.63-7.64h58.3a6,6,0,0,1,6,6c0,2.08,0,4.52,0,7.25h-8.45v4.78h8.47c0,11.25.07,27.86.07,46.86A21.38,21.38,0,0,1,489.61,274.12Z"/></g></g></svg>