<svg xmlns="http://www.w3.org/2000/svg" viewBox="0 0 599.05 797.76"><defs><style>.cls-1{fill:#1a1a1a;}</style></defs><title>hand</title><g id="Capa_2" data-name="Capa 2"><g id="Capa_3" data-name="Capa 3"><path class="cls-1" d="M535.94,286.88A62.72,62.72,0,0,0,501.7,297a72.51,72.51,0,0,0-116-53.87V72.57A72.62,72.62,0,0,0,313.19,0a70.81,70.81,0,0,0-50.84,21.33A76.55,76.55,0,0,0,240.7,71.88L230.08,318.52,141.59,131.61l.06,0A75.5,75.5,0,0,0,4.55,193.76l0,.07L111.12,483.3,95,487.57c-15.26,4-29.11,12.24-39,23.09a64.62,64.62,0,0,0-17.27,44.15v30.92c0,67.63,32.37,124.08,93.61,163.23,47.79,30.56,112.54,48.8,173.19,48.8,82.29,0,148.93-20.06,198.08-59.61,63.32-50.95,95.43-132.88,95.43-243.52V350A63.18,63.18,0,0,0,535.94,286.88ZM385.69,301.13a43.57,43.57,0,0,1,87.14,0V472.54a43.57,43.57,0,1,1-87.14,0ZM31.81,183.88a46.5,46.5,0,0,1,83.7-39.58L227.2,380.23a15.49,15.49,0,0,0,14,8.88,16.19,16.19,0,0,0,3.09-.31,15.48,15.48,0,0,0,12.42-14.53l13-301.15h0C270.76,48,289.46,29,313.19,29a43.59,43.59,0,0,1,43.5,43.57V418.24l-217.42,57.6ZM305.54,768.76c-91.94,0-237.8-49.69-237.8-183V554.81c0-22.15,18.7-35,34.7-39.21l247.1-65.47c2.47,24.45-.3,73.48-56.48,94.43-29,10.81-49.11,17.8-63.8,22.91-15.52,5.39-24.07,8.36-29.79,11.27-5.53,2.82-13,7.86-14.27,19-.58,5.28.19,12.89,16,47.42,7.72,16.92,15.43,32.36,15.75,33l25.94-13c-11.33-22.67-23.9-50.21-27.69-61.82,4.78-2,13.41-5,23.62-8.56,14.83-5.15,35.13-12.2,64.43-23.13,36.59-13.64,55.78-36.58,65.68-59a72.46,72.46,0,0,0,111.31,11.43,63,63,0,0,0,86.72,25.41C545.29,729.08,415.75,768.76,305.54,768.76ZM570.05,494.63a34.11,34.11,0,0,1-68.22,0V350a34.11,34.11,0,1,1,68.22,0Z"/></g></g></svg>